<svg xmlns="http://www.w3.org/2000/svg" viewBox="0 0 146.57 146.57"><defs><style>.cls-1{fill:#e53c61;}.cls-2{fill:#fff;}</style></defs><title>juicy-icon-alt</title><g id="Layer_2" data-name="Layer 2"><g id="Layer_1-2" data-name="Layer 1"><circle class="cls-1" cx="73.29" cy="73.28" r="73.29"/><path class="cls-2" d="M65.47,49.29h0A14.35,14.35,0,0,1,72.8,51.2a14.51,14.51,0,0,1,7.75,12.18,17.05,17.05,0,0,1-1.82,9.86,22.62,22.62,0,0,1-2.56,3.45c-1.19,1.39-2.42,2.74-3.73,4.17s-2.62,2.86-3.93,4.38a27.89,27.89,0,0,0-6.2,11.11,18.31,18.31,0,0,0,.14,9.68A29.35,29.35,0,0,1,45.06,94.79a28.89,28.89,0,0,1-.78-34.35C48.39,54.57,54.18,51,62,49.62a19.7,19.7,0,0,1,3.51-.33m0-7.57a26.9,26.9,0,0,0-4.86.46c-9.31,1.69-17,6.07-22.52,13.92-9.64,13.79-8.45,30.74.92,43.23,7.65,10.19,18.36,14.62,30.46,15.28,1.74-.12,3.1-.12,4.43-.32a37.15,37.15,0,0,0,4.26-1,1.26,1.26,0,0,0,.79-.84c0-.27-.44-.68-.77-.84-.88-.43-1.79-.8-2.72-1.15-5.22-2-7-8-5.85-12.12a20.7,20.7,0,0,1,4.64-8.15c2.5-2.9,5.17-5.64,7.67-8.55a28.23,28.23,0,0,0,3.45-4.77A24.6,24.6,0,0,0,88.08,62.7a22.71,22.71,0,0,0-22.61-21Z"/><path class="cls-2" d="M91.28,49.74c7.9,1.13,14,4.62,18,11.34a29.62,29.62,0,0,1,4,14.75A33.44,33.44,0,0,1,101.54,103a25.67,25.67,0,0,1-13.78,6.51c-3.46.45-6.55-.34-8.86-3.19s-2.36-5.67-1.12-8.81a26.57,26.57,0,0,1,5-7.69q3.53-4,7.18-8c3.28-3.51,4.75-7.78,5.45-12.4a29.11,29.11,0,0,0-2.21-16.26c-.25-.56-.57-1.09-.87-1.64Z"/><path class="cls-2" d="M86.53,44.25A18.55,18.55,0,0,1,108,24.91C107,36.24,97.52,43.87,86.53,44.25Z"/></g></g></svg>