<svg xmlns="http://www.w3.org/2000/svg" viewBox="0 0 64.99 71.35"><defs><style>.cls-1{fill:none;}.cls-2{fill:#e53c61;}.cls-3{fill:#5a7936;}</style></defs><title>juicy-icon</title><g id="Layer_2" data-name="Layer 2"><g id="Layer_1-2" data-name="Layer 1"><path class="cls-1" d="M42.8,41.4a22.47,22.47,0,0,1-2.74,3.78C38.08,47.49,36,49.66,34,52a16.56,16.56,0,0,0-3.68,6.47c-.89,3.3.5,8,4.64,9.61.74.28,1.46.57,2.16.91.26.13.63.45.61.67a1,1,0,0,1-.63.66,28.16,28.16,0,0,1-3.38.81c-1.05.16-2.13.16-3.51.26-9.6-.53-18.09-4-24.16-12.12A28.81,28.81,0,0,1,5.3,24.94c4.36-6.22,10.48-9.7,17.86-11A18.25,18.25,0,0,1,35.8,15.84,17.46,17.46,0,0,1,45,30.18,19.49,19.49,0,0,1,42.8,41.4Z"/><path class="cls-2" d="M27,19.55h0a11.4,11.4,0,0,1,5.81,1.51A11.5,11.5,0,0,1,39,30.72a13.45,13.45,0,0,1-1.45,7.82,17.08,17.08,0,0,1-2,2.74c-.94,1.1-1.92,2.17-3,3.3s-2.08,2.27-3.12,3.48a22.23,22.23,0,0,0-4.92,8.81,14.39,14.39,0,0,0,.12,7.67,23.3,23.3,0,0,1-13.8-8.9,22.94,22.94,0,0,1-.61-27.25c3.26-4.65,7.84-7.46,14-8.58A15.26,15.26,0,0,1,27,19.55m0-6a22.16,22.16,0,0,0-3.86.35c-7.38,1.34-13.5,4.82-17.86,11A28.81,28.81,0,0,0,6,59.23c6.07,8.08,14.56,11.59,24.16,12.12,1.38-.1,2.46-.1,3.51-.26a28.16,28.16,0,0,0,3.38-.81,1,1,0,0,0,.63-.66c0-.22-.35-.54-.61-.67-.7-.34-1.42-.63-2.16-.91-4.14-1.62-5.53-6.31-4.64-9.61A16.56,16.56,0,0,1,34,52c2-2.3,4.1-4.47,6.08-6.78A22.47,22.47,0,0,0,42.8,41.4,19.49,19.49,0,0,0,45,30.18,17.46,17.46,0,0,0,35.8,15.84,17.51,17.51,0,0,0,27,13.55Z"/><path class="cls-2" d="M47.49,19.9c6.26.9,11.11,3.66,14.32,9A23.49,23.49,0,0,1,65,40.59a26.52,26.52,0,0,1-9.34,21.55A20.44,20.44,0,0,1,44.7,67.3a7.25,7.25,0,0,1-7-2.53,6.55,6.55,0,0,1-.89-7,21.21,21.21,0,0,1,4-6.1c1.86-2.13,3.76-4.24,5.7-6.31a17.59,17.59,0,0,0,4.31-9.83A23,23,0,0,0,49,22.64a13.5,13.5,0,0,0-.69-1.3C48.08,20.92,47.83,20.5,47.49,19.9Z"/><path class="cls-3" d="M43.72,15.55A14.72,14.72,0,0,1,60.74.21C60,9.19,52.44,15.24,43.72,15.55Z"/></g></g></svg>